<?xml version="1.0"?>
<svg xmlns="http://www.w3.org/2000/svg" height="512px" viewBox="-22 0 512 512.00112" width="512px" class=""><g><path d="m306.554688 115.542969 39.582031-3.457031c25.386719 0 45.960937 20.578124 45.960937 45.960937s-20.574218 45.960937-45.960937 45.960937c25.386719 0 45.960937 20.574219 45.960937 45.957032 0 8.222656-2.15625 15.941406-5.941406 22.621094l10.214844 36.050781c-3.25 13.5-6.730469 26.054687-11.523438 33.25-5.652344 25.25-274.847656 26.824219-275.3125-6.902344.800782-28.222656.175782-53.5-1.847656-76.90625 7.410156-5.109375 16.386719-8.113281 26.070312-8.113281-10.507812 0-20.183593-3.53125-27.925781-9.464844-2.648437-21.53125-6.605469-41.269531-11.957031-59.328125 7.929688-13.816406 22.8125-23.125 39.882812-23.125-25.382812 0-45.960937-20.578125-45.960937-45.960937 0-25.382813 20.578125-45.960938 45.960937-45.960938l145.894532 16.648438c-11.6875 17.296874-33.515625 34.257812-55.960938 34.257812" fill="#ed2772" data-original="#ED2772" class="" style="fill:#F5D7B7" data-old_color="#ED2772"/><g fill="#cc2262"><path d="m234.933594 263.636719c-34.226563 0-68.15625-1.539063-101.550782-4.617188-11.789062-.078125-22.957031-3.90625-32.316406-11.078125-3.433594-2.632812-4.082031-7.550781-1.449218-10.984375 2.628906-3.433593 7.546874-4.085937 10.980468-1.453125 6.699219 5.136719 14.707032 7.851563 23.160156 7.851563.238282 0 .480469.011719.71875.035156 66.070313 6.109375 134.277344 6.109375 202.734376-.003906 4.296874-.371094 8.113281 2.796875 8.5 7.105469.382812 4.308593-2.796876 8.113281-7.105469 8.5-34.695313 3.097656-69.332031 4.644531-103.671875 4.644531zm0 0" data-original="#000000" class="" style="fill:#C59A6B" data-old_color="#C59A6A"/><path d="m93.867188 186.769531c-1.320313 0-2.660157-.335937-3.890626-1.042969-3.75-2.152343-5.046874-6.9375-2.894531-10.691406 9.578125-16.691406 27.460938-27.058594 46.671875-27.058594.464844 0 .929688.039063 1.386719.121094 76.941406 13.839844 142.675781 13.867188 200.964844.085938 4.207031-.992188 8.429687 1.613281 9.425781 5.824218.996094 4.207032-1.613281 8.429688-5.820312 9.425782-60.234376 14.242187-127.832032 14.3125-206.621094.214844-13.363282.234374-25.738282 7.539062-32.421875 19.1875-1.445313 2.519531-4.085938 3.933593-6.800781 3.933593zm0 0" data-original="#000000" class="" style="fill:#C59A6B" data-old_color="#C59A6A"/><path d="m374.785156 226.207031c-1.714844 0-3.4375-.5625-4.882812-1.714843-6.640625-5.300782-14.617188-8.164063-23.109375-8.304688-72.089844 12.695312-141.503907 12.644531-206.324219-.152344-4.246094-.839844-7.003906-4.957031-6.167969-9.203125.835938-4.242187 4.949219-7.003906 9.203125-6.167969 63.121094 12.460938 130.835938 12.453126 201.265625-.027343.449219-.082031.910157-.121094 1.367188-.121094 12.148437 0 24.0625 4.167969 33.539062 11.734375 3.378907 2.699219 3.933594 7.625 1.234375 11.007812-1.542968 1.9375-3.824218 2.949219-6.125 2.949219zm0 0" data-original="#000000" class="" style="fill:#C59A6B" data-old_color="#C59A6A"/><path d="m373.015625 133.589844c-1.714844 0-3.4375-.558594-4.882813-1.710938-6.640624-5.300781-14.617187-8.164062-23.109374-8.304687-72.089844 12.695312-141.503907 12.644531-206.324219-.152344-4.246094-.839844-7.003907-4.957031-6.167969-9.203125.835938-4.242188 4.949219-7.003906 9.203125-6.167969 63.121094 12.460938 130.835937 12.453125 201.265625-.027343.449219-.082032.910156-.121094 1.367188-.121094 12.148437 0 24.058593 4.167968 33.539062 11.734375 3.378906 2.699219 3.933594 7.625 1.234375 11.007812-1.546875 1.9375-3.824219 2.945313-6.125 2.945313zm0 0" data-original="#000000" class="" style="fill:#C59A6B" data-old_color="#C59A6A"/><path d="m247.195312 315.335938c-34.3125 0-69.660156-3.167969-106.535156-9.511719-4.265625-.734375-7.128906-4.785157-6.394531-9.046875.734375-4.265625 4.78125-7.125 9.050781-6.394532 71.902344 12.367188 137.757813 12.378907 201.328125.03125.492188-.09375.988281-.144531 1.492188-.144531 10.582031 0 20.78125-4.453125 27.980469-12.226562 2.9375-3.175781 7.894531-3.363281 11.070312-.421875 3.175781 2.9375 3.363281 7.894531.421875 11.070312-9.972656 10.769532-24.039063 17.023438-38.691406 17.242188-32.527344 6.265625-65.613281 9.402344-99.722657 9.402344zm0 0" data-original="#000000" class="" style="fill:#C59A6B" data-old_color="#C59A6A"/><path d="m96.410156 85.3125c13.84375-4.957031 28.867188-4.394531 42.523438 1.664062 38.796875 17.203126 77.066406 23.863282 116.121094 19.832032 8.683593-5.753906 19.015624-15.773438 24.597656-24.035156l-145.894532-16.648438c-15.394531 0-29.007812 7.574219-37.347656 19.1875zm0 0" data-original="#000000" class="" style="fill:#C59A6B" data-old_color="#C59A6A"/></g><path d="m44.066406 249.964844c6.320313 52.867187 2.65625 111.683594-2.40625 163.105468-1.691406 17.183594 10.867188 32.484376 28.050782 34.175782 17.195312 1.695312 32.484374-10.867188 34.175781-28.050782 6.515625-66.132812 7.679687-117.828124 3.667969-162.6875-5.050782-56.484374-18.445313-101.210937-40.953126-136.726562-4.378906-6.902344-5.335937-14.972656-2.636718-22.125.3125-.820312.636718-1.636719.972656-2.425781 5.617188-13.230469 16.179688-23.460938 29.734375-28.8125 14.316406-5.648438 30.035156-5.285157 44.265625 1.027343 62.867188 27.878907 126.617188 27.878907 189.484375 0 14.226563-6.3125 29.945313-6.675781 44.261719-1.027343 13.558594 5.351562 24.117187 15.582031 29.730468 28.796875.246094.582031.488282 1.167968.71875 1.757812 3.578126 9.171875 4.25 19.410156 1.945313 29.609375-11.019531 48.738281-14.820313 104.222657-11.613281 169.617188 1.96875 40.179687-20.136719 77.039062-56.316406 93.902343-.613282.289063-1.21875.582032-1.820313.886719-25.757813 12.988281-38.433594 42.675781-31.027344 70.554688l5.835938 21.972656c1.867187 7.035156 4.515625 13.851563 8.019531 20.230469 2.886719 5.253906 5.328125 8.070312 11.75 8.246094.164062.007812.324219.007812.488281.007812 9.414063 0 14.011719-10.136719 17.4375-16.972656l14.921875-47.011719c.015625-.539063.328125-1.011719.816406-1.242187 59.316407-27.652344 95.5625-87.957032 92.347657-153.636719-2.925781-59.65625.394531-109.628907 10.148437-152.765625 5.066406-22.417969 3.449219-45.285156-4.683594-66.128906-.453124-1.152344-.921874-2.300782-1.410156-3.457032-12.222656-28.773437-35.070312-50.980468-64.335937-62.527344-29.589844-11.679687-63.332031-10.9375-92.5625 2.027344-46.695313 20.710938-92.089844 20.710938-138.785157 0-29.234374-12.964844-62.976562-13.703125-92.566406-2.027344-29.269531 11.546876-52.117187 33.753907-64.347656 62.542969-.664062 1.570313-1.304688 3.171875-1.910156 4.773438-9.558594 25.332031-6.449219 54.371093 8.320312 77.675781 11.011719 17.382812 18.738282 37.898438 23.980469 60.292969zm0 0" fill="#cf4842" data-original="#CF4842" class="" style="fill:#F28B74" data-old_color="#F5D7B7"/><path d="m66.601562 119.78125c-4.378906-6.90625-5.335937-14.972656-2.636718-22.125.3125-.824219.636718-1.636719.972656-2.425781.589844-1.386719 1.242188-2.730469 1.9375-4.046875-10.832031 5.75-19.273438 14.867187-24.082031 26.191406-.335938.789062-.664063 1.601562-.972657 2.425781-2.699218 7.15625-1.742187 15.222657 2.632813 22.125 22.507813 35.515625 35.90625 80.242188 40.957031 136.726563 4.011719 44.859375 2.84375 96.554687-3.667968 162.691406-.167969 1.714844-.480469 3.386719-.910157 5 12.234375-3.261719 21.742188-13.808594 23.054688-27.148438 6.515625-66.136718 7.679687-117.832031 3.667969-162.6875-5.050782-56.484374-18.445313-101.210937-40.953126-136.726562zm0 0" fill="#a83a36" data-original="#A83A36" class="active-path" style="fill:#CE745B" data-old_color="#CF755C"/><path d="m461.382812 74.242188c-.453124-1.152344-.921874-2.300782-1.410156-3.457032-12.222656-28.773437-35.070312-50.980468-64.335937-62.527344-29.59375-11.679687-63.332031-10.9375-92.566407 2.027344-46.691406 20.710938-92.085937 20.710938-138.785156 0-29.234375-12.964844-62.972656-13.703125-92.566406-2.027344-20.1875 7.964844-37.320312 21.003907-50.019531 37.777344 8.410156-6.371094 17.757812-11.640625 27.875-15.632812 29.589843-11.675782 63.332031-10.9375 92.566406 2.03125 46.695313 20.710937 92.09375 20.710937 138.785156 0 29.234375-12.964844 62.972657-13.707032 92.5625-2.03125 29.265625 11.546875 52.113281 33.753906 64.339844 62.527344.488281 1.15625.957031 2.304687 1.40625 3.460937 8.132813 20.84375 9.753906 43.710937 4.683594 66.125-9.75 43.140625-13.070313 93.113281-10.148438 152.769531 2.007813 40.957032-11.339843 79.824219-36.050781 109.984375 38.632812-31.726562 60.738281-80.246093 58.195312-132.128906-2.921874-59.660156.398438-109.628906 10.152344-152.769531 5.066406-22.417969 3.449219-45.285156-4.683594-66.128906zm0 0" fill="#a83a36" data-original="#A83A36" class="active-path" style="fill:#CE745B" data-old_color="#CF755C"/></g> </svg>
