<?xml version="1.0"?>
<svg xmlns="http://www.w3.org/2000/svg" height="512px" viewBox="-98 0 512 512.001" width="512px" class=""><g><path d="m283.800781 512h-252.300781c-17.398438 0-31.5-14.101562-31.5-31.496094v-317.164062c0-17.398438 14.101562-31.5 31.5-31.5h252.300781c17.398438 0 31.5 14.101562 31.5 31.5v317.160156c0 17.398438-14.101562 31.5-31.5 31.5zm0 0" fill="#5b9ed6" data-original="#5B9ED6" class="" style="fill:#76B7EB" data-old_color="#F5D7B7"/><path d="m282.523438 131.839844h-53.265626c18.105469 0 32.78125 14.675781 32.78125 32.78125v314.601562c0 18.101563-14.675781 32.777344-32.78125 32.777344h53.265626c18.101562 0 32.777343-14.675781 32.777343-32.777344v-314.601562c0-18.105469-14.675781-32.78125-32.777343-32.78125zm0 0" fill="#487ca8" data-original="#487CA8" class="" style="fill:#38648C" data-old_color="#487CA8"/><path d="m71.277344 97.820312h172.746094v34.019532h-172.746094zm0 0" fill="#5a67ad" data-original="#5A67AD" class="" style="fill:#5C90BD" data-old_color="#5D91BF"/><path d="m71.277344 97.820312h172.746094v34.019532h-172.746094zm0 0" fill="#5a67ad" data-original="#5A67AD" class="" style="fill:#5C90BD" data-old_color="#5D91BF"/><path d="m191.992188 97.820312h52.03125v34.019532h-52.03125zm0 0" fill="#475187" data-original="#475187" class=""/><path d="m263.175781 97.820312h-211.050781c-9.25 0-16.75-7.5-16.75-16.75v-64.320312c0-9.25 7.5-16.75 16.75-16.75h211.050781c9.253907 0 16.75 7.5 16.75 16.75v64.320312c0 9.25-7.5 16.75-16.75 16.75zm0 0" fill="#5b9ed6" data-original="#5B9ED6" class="" style="fill:#76B7EB" data-old_color="#F5D7B7"/><path d="m217.457031 0v97.820312h45.039063c9.625 0 17.429687-7.804687 17.429687-17.429687v-62.960937c0-9.625-7.804687-17.429688-17.429687-17.429688zm0 0" fill="#487ca8" data-original="#487CA8" class="" style="fill:#38648C" data-old_color="#487CA8"/><path d="m252.585938 188.5625c7.199218 0 13.039062 5.835938 13.039062 13.039062v240.636719c0 7.203125-5.839844 13.039063-13.039062 13.039063h-189.871094c-7.199219 0-13.039063-5.835938-13.039063-13.039063v-240.636719c0-7.203124 5.839844-13.039062 13.039063-13.039062zm0 0" fill="#d7e4ef" data-original="#D7E4EF" class=""/><path d="m252.585938 188.5625h-49.429688v266.71875h49.429688c7.199218 0 13.039062-5.839844 13.039062-13.039062v-240.640626c0-7.203124-5.839844-13.039062-13.039062-13.039062zm0 0" fill="#b3bec7" data-original="#B3BEC7" class=""/><path d="m231.277344 321.921875c0 40.660156-32.964844 73.625-73.625 73.625-40.664063 0-73.628906-32.964844-73.628906-73.625 0-40.664063 32.964843-73.628906 73.628906-73.628906 40.660156 0 73.625 32.964843 73.625 73.628906zm0 0" fill="#ef2d57" data-original="#EF2D57" class="" style="fill:#F28B74" data-old_color="#EF2D57"/><path d="m193.882812 257.835938c6.066407 10.699218 9.542969 23.058593 9.542969 36.234374 0 40.660157-32.960937 73.625-73.625 73.625-13.175781 0-25.535156-3.476562-36.234375-9.542968 12.648438 22.320312 36.597656 37.394531 64.085938 37.394531 40.660156 0 73.625-32.964844 73.625-73.625 0-27.488281-15.074219-51.4375-37.394532-64.085937zm0 0" fill="#bf2445" data-original="#BF2445" class="" style="fill:#CA705C" data-old_color="#CC715D"/><path d="m123.820312 332.328125h23.425782v23.421875c0 5.746094 4.660156 10.40625 10.40625 10.40625s10.40625-4.65625 10.40625-10.40625v-23.421875h23.421875c5.746093 0 10.40625-4.660156 10.40625-10.40625s-4.660157-10.40625-10.40625-10.40625h-23.421875v-23.425781c0-5.746094-4.660156-10.40625-10.40625-10.40625s-10.40625 4.660156-10.40625 10.40625v23.425781h-23.425782c-5.746093 0-10.40625 4.65625-10.40625 10.40625 0 5.746094 4.660157 10.40625 10.40625 10.40625zm0 0" fill="#424242" data-original="#424242" class="active-path" style="fill:#FDF0F0" data-old_color="#FDEFEF"/><g fill="#564174"><path d="m84.804688.0859375v95.6523435c0 .714844.070312 1.410157.207031 2.082031h20.398437c.136719-.671874.207032-1.367187.207032-2.082031v-95.6523435c0-.0273437-.003907-.0585937-.003907-.0859375h-20.804687c0 .0273438-.003906.0585938-.003906.0859375zm0 0" data-original="#000000" class="" style="fill:#5187AF" data-old_color="#5188B1"/><path d="m146.96875 1.085938v95.652343c0 .363281.019531.726563.058594 1.082031h20.695312c.039063-.355468.058594-.71875.058594-1.082031v-95.652343c0-.367188-.019531-.730469-.058594-1.085938h-20.695312c-.039063.355469-.058594.71875-.058594 1.085938zm0 0" data-original="#000000" class="" style="fill:#5187AF" data-old_color="#5188B1"/><path d="m210.203125.0859375v95.6523435c0 .714844.074219 1.410157.210937 2.082031h20.394532c.136718-.671874.207031-1.367187.207031-2.082031v-95.6523435c0-.0273437-.003906-.0585937-.003906-.0859375h-20.804688c0 .0273438-.003906.0585938-.003906.0859375zm0 0" data-original="#000000" class="" style="fill:#5187AF" data-old_color="#5188B1"/></g></g> </svg>
