<?xml version="1.0"?>
<svg xmlns="http://www.w3.org/2000/svg" xmlns:xlink="http://www.w3.org/1999/xlink" version="1.1" id="Capa_1" x="0px" y="0px" viewBox="0 0 512.001 512.001" style="enable-background:new 0 0 512.001 512.001;" xml:space="preserve" width="512px" height="512px" class=""><g><polygon style="fill:#F5F5F5;" points="329.759,382.482 182.242,382.482 157.546,458.313 182.242,512 329.759,512 347.741,447.241   " data-original="#F5F5F5"/><g>
	<path style="fill:#80C9FF;" d="M139.821,382.483c0,0-61.512,23.176-61.512,129.518h46.983l7.726-6.252l7.726,6.252h41.498V382.483   H139.821z" data-original="#80C9FF"/>
	<path style="fill:#80C9FF;" d="M372.181,382.483h-42.422V512h41.498l7.726-5.961L386.71,512h46.982   C433.693,405.659,372.181,382.483,372.181,382.483z" data-original="#80C9FF"/>
</g><circle style="fill:#C48B78" cx="256.001" cy="412.691" r="45.627" data-original="#E3A98E" class="active-path" data-old_color="#C58C79"/><g>
	<path style="fill:#6DAAD9;" d="M371.257,512v-55.574c0-4.267,3.458-7.726,7.726-7.726c4.268,0,7.726,3.459,7.726,7.726V512H371.257   z" data-original="#6DAAD9" class=""/>
	<path style="fill:#6DAAD9;" d="M125.291,512v-55.574c0-4.267,3.459-7.726,7.726-7.726s7.726,3.459,7.726,7.726V512H125.291z" data-original="#6DAAD9" class=""/>
</g><path style="fill:#80C9FF;" d="M19.5,224.868c0-60.432,24.847-117.142,69.965-159.68C134.049,23.151,193.192,0,256.001,0  s121.952,23.151,166.537,65.188c45.117,42.539,69.964,99.248,69.964,159.68H19.5z" data-original="#80C9FF"/><path style="fill:#6DAAD9;" d="M130.671,65.188C170.345,27.781,221.55,5.346,276.604,0.853C269.789,0.298,262.919,0,256.001,0  C193.192,0,134.049,23.15,89.464,65.188c-45.117,42.538-69.965,99.248-69.965,159.68h41.207  C60.707,164.435,85.554,107.727,130.671,65.188z" data-original="#6DAAD9" class=""/><g>
	<circle style="fill:#C48B78" cx="55.867" cy="232.419" r="46.109" data-original="#E3A98E" class="active-path" data-old_color="#C58C79"/>
	<circle style="fill:#C48B78" cx="456.134" cy="232.419" r="46.109" data-original="#E3A98E" class="active-path" data-old_color="#C58C79"/>
</g><path style="fill:#FBBCA1" d="M256.001,140.479c-138.368,0-190.135,37.059-199.159,44.521c-2.882,12.863-4.41,26.196-4.41,39.868  c0,106.004,91.14,191.936,203.568,191.936s203.568-85.933,203.568-191.936c0-13.672-1.528-27.005-4.41-39.868  C446.136,177.537,394.368,140.479,256.001,140.479z" data-original="#FBBCA1" class=""/><path style="fill:#38484A;" d="M361.743,245.26c-4.268,0-7.726-3.459-7.726-7.726v-20.56c0-4.267,3.458-7.726,7.726-7.726  s7.726,3.459,7.726,7.726v20.56C369.47,241.801,366.011,245.26,361.743,245.26z" data-original="#38484A" class=""/><path style="fill:#F97579;" d="M375.745,275.481h-28.003c-4.268,0-7.726-3.459-7.726-7.726s3.458-7.726,7.726-7.726h28.003  c4.268,0,7.726,3.459,7.726,7.726S380.013,275.481,375.745,275.481z" data-original="#F97579" class=""/><path style="fill:#38484A;" d="M150.259,245.26c-4.267,0-7.726-3.459-7.726-7.726v-20.56c0-4.267,3.459-7.726,7.726-7.726  c4.267,0,7.726,3.459,7.726,7.726v20.56C157.985,241.801,154.526,245.26,150.259,245.26z" data-original="#38484A" class=""/><path style="fill:#F97579;" d="M164.26,275.481h-28.003c-4.267,0-7.726-3.459-7.726-7.726s3.459-7.726,7.726-7.726h28.003  c4.267,0,7.726,3.459,7.726,7.726S168.527,275.481,164.26,275.481z" data-original="#F97579" class=""/><path style="fill:#38484A;" d="M256.002,274.319c-9.6,0-18.613-4.013-24.731-11.009c-2.809-3.213-2.481-8.094,0.731-10.902  c3.213-2.808,8.094-2.482,10.902,0.731c3.182,3.64,7.955,5.727,13.097,5.727c5.142,0,9.914-2.087,13.095-5.726  c2.81-3.214,7.69-3.541,10.902-0.734c3.213,2.808,3.542,7.689,0.733,10.902C274.616,270.306,265.602,274.319,256.002,274.319z" data-original="#38484A" class=""/><g>
	<path style="fill:#7A6E62" d="M109.543,159.422L109.543,159.422c-30.962,9.86-46.626,20.724-51.987,25l-0.774,0.86   c-2.841,12.776-4.35,26.013-4.35,39.586C52.433,224.869,109.543,213.357,109.543,159.422z" data-original="#7A6E62" class=""/>
	<path style="fill:#7A6E62" d="M402.458,159.422L402.458,159.422c30.962,9.86,46.626,20.724,51.987,25l0.774,0.86   c2.841,12.776,4.35,26.013,4.35,39.586C459.568,224.869,402.458,213.357,402.458,159.422z" data-original="#7A6E62" class=""/>
</g></g> </svg>
